<svg width="32" height="32" viewBox="0 0 32 32" fill="none" xmlns="http://www.w3.org/2000/svg">
  <!-- Circle background -->
  <circle cx="16" cy="16" r="15" fill="#7CB342" stroke="#7CB342" stroke-width="2"/>
  
  <!-- Maple leaf shape -->
  <path d="M16 6
           C14.5 7.5 13 8.5 11.5 10
           C10 11.5 9 13 8.5 14.5
           C8 16 8.5 17.5 9.5 18.5
           C10.5 19.5 11.5 20 12.5 20.5
           L11 22
           L13 22.5
           L14.5 21
           C15 21.2 15.5 21.3 16 21.3
           C16.5 21.3 17 21.2 17.5 21
           L19 22.5
           L21 22
           L19.5 20.5
           C20.5 20 21.5 19.5 22.5 18.5
           C23.5 17.5 24 16 23.5 14.5
           C23 13 22 11.5 20.5 10
           C19 8.5 17.5 7.5 16 6Z" 
        fill="white"/>
  
  <!-- Leaf veins -->
  <path d="M16 8 L16 20" stroke="#7CB342" stroke-width="0.5"/>
  <path d="M16 12 L12 16" stroke="#7CB342" stroke-width="0.3"/>
  <path d="M16 12 L20 16" stroke="#7CB342" stroke-width="0.3"/>
  <path d="M16 15 L13 18" stroke="#7CB342" stroke-width="0.3"/>
  <path d="M16 15 L19 18" stroke="#7CB342" stroke-width="0.3"/>
</svg>